<svg id="LINE" enable-background="new 0 0 36 36" height="512" viewBox="0 0 36 36" width="512" xmlns="http://www.w3.org/2000/svg"><path d="m27.417 3.914c-6.915.129-11.732-3.365-15.064-3.302s-10.296 2.109-10.009 17.44 9.744 17.404 13.41 17.336c17.163-.321 23.911-31.703 11.663-31.474z" fill="#efefef"/><g fill="#a4afc1"><path d="m6.782 8.561h2v1h-2z" transform="matrix(.707 -.707 .707 .707 -4.128 8.157)"/><path d="m2.717 12.627h2v1h-2z" transform="matrix(.707 -.707 .707 .707 -8.194 6.473)"/><path d="m3.217 7.884h1v2h-1z" transform="matrix(.707 -.707 .707 .707 -5.192 5.227)"/><path d="m26.324 32.233c-.827 0-1.5-.673-1.5-1.5s.673-1.5 1.5-1.5 1.5.673 1.5 1.5-.673 1.5-1.5 1.5zm0-2c-.276 0-.5.225-.5.5s.224.5.5.5.5-.225.5-.5-.224-.5-.5-.5z"/></g><path d="m21.29 18.27-2.86-2.86-1.962-1.96-.547-.547c-.537-.537-1.353-.71-2.063-.422l-4.608 1.91v6.018h.5c1.26 0 2.474.469 3.407 1.315l2.215 2.01c.521.506 1.352.5 1.866-.013l.013-.013c.517-.517.518-1.355.003-1.874l.235.235c.519.519 1.36.519 1.879 0s.519-1.36 0-1.879l-.978-.978h.001l.98.98c.52.52 1.36.52 1.88 0l.04-.04c.509-.522.509-1.362-.001-1.882z" fill="#2fdf84"/><path d="m26.75 14.062-5.424-2.218c-.509-.212-1.085-.192-1.577.055l-3.306 1.655c-.778.39-.946 1.427-.331 2.042.389.389.984.485 1.476.237l2.937-1.48-1.535 1.617 2.3 2.3v1.88l2.216.583 1.447-.325 1.797-1.2z" fill="#f3f3f1"/><path d="m26.75 12.75h2.5v8.5h-2.5z" fill="#f3f3f1"/><path d="m6.75 12.75h2.5v8.5h-2.5z" fill="#2fdf84"/><path d="m19.254 21.833c.06.06.089.136.135.204.012-.013.016-.029.028-.042z" fill="#00b871"/><path d="m15.157 21.724c-.933-.847-2.147-1.315-3.407-1.315h-.5v-6.018l4.283-1.775c-.502-.294-1.119-.36-1.675-.135l-4.608 1.91v6.018h.5c1.26 0 2.474.469 3.407 1.315l2.215 2.01c.521.506 1.352.5 1.866-.013l.013-.013c.015-.015.02-.036.035-.052z" fill="#00b871"/><path d="m20.39 19.21h-.001l.916.916h.001z" fill="#00b871"/><path d="m21.326 11.844c-.509-.212-1.085-.192-1.577.055l-.13.065 5.131 2.099v5.146l-1.797 1.2-.367.082.921.242 1.447-.325 1.797-1.2v-5.146z" fill="#d5dbe1"/><path d="m20.293 21.322c-.53 0-1.054-.202-1.454-.602l-.98-.98 1.061-1.061.98.98c.226.225.594.225.819 0 .259-.264.259-.637.035-.866l-2.854-2.853 1.061-1.061 2.86 2.859c.797.813.797 2.128.005 2.936-.434.434-.987.648-1.533.648z"/><path d="m9.171 13.242h2.083v1.499h-2.083z" transform="matrix(.924 -.383 .383 .924 -4.581 4.979)"/><path d="m15.938 13.98-.547-.547c-.331-.332-.822-.433-1.252-.258l-1.179.488-.574-1.385 1.185-.491c.993-.403 2.124-.173 2.881.585l.546.547z"/><path d="m17.013 16.721c-.524 0-1.042-.205-1.432-.595-.466-.466-.672-1.105-.567-1.756.105-.65.503-1.192 1.092-1.487l3.306-1.655c.69-.344 1.493-.372 2.202-.076l5.419 2.217-.568 1.389-5.424-2.219c-.312-.131-.661-.117-.958.031l-3.305 1.655c-.153.076-.256.217-.284.386-.027.168.026.334.147.455.161.161.406.199.608.098l2.938-1.479.675 1.34-2.937 1.479c-.29.145-.602.217-.912.217z"/><path d="m18.428 23.207c-.555 0-1.077-.217-1.47-.609l-1.22-1.22 1.061-1.061 1.22 1.22c.219.219.6.219.818 0 .11-.109.17-.255.17-.409s-.06-.3-.17-.409l-.979-.979 1.061-1.061.98.979c.393.394.609.915.609 1.47 0 .556-.216 1.077-.609 1.47-.393.392-.915.609-1.471.609.001 0 .001 0 0 0z"/><path d="m16.293 24.854c-.523 0-1.044-.194-1.444-.584l-2.195-1.991c-.797-.723-1.829-1.121-2.903-1.121h-.5v-1.5h.5c1.448 0 2.837.536 3.911 1.51l2.214 2.01c.245.238.61.236.832.013.123-.123.183-.269.183-.423s-.06-.3-.169-.409l-.98-.98 1.061-1.061.98.98c.393.393.609.914.609 1.47s-.216 1.077-.609 1.47c-.414.411-.953.616-1.49.616z"/><path d="m23.879 21.481c-.284 0-.569-.047-.844-.141l-1.787-.611.485-1.42 1.787.611c.387.134.818.048 1.125-.221l1.563-1.627 1.08 1.041-1.61 1.671c-.521.461-1.159.697-1.799.697z"/><path d="m29.25 22h-2.5c-.414 0-.75-.336-.75-.75v-8.5c0-.414.336-.75.75-.75h2.5c.414 0 .75.336.75.75v8.5c0 .414-.336.75-.75.75zm-1.75-1.5h1v-7h-1z"/><path d="m9.25 22h-2.5c-.414 0-.75-.336-.75-.75v-8.5c0-.414.336-.75.75-.75h2.5c.414 0 .75.336.75.75v8.5c0 .414-.336.75-.75.75zm-1.75-1.5h1v-7h-1z"/></svg>