<svg height="512pt" viewBox="0 0 512 512" width="512pt" xmlns="http://www.w3.org/2000/svg"><path d="m256 512c140.699219 0 256-115.300781 256-256s-115.300781-256-256-256-256 115.300781-256 256 115.300781 256 256 256" fill="#fdbf00"/><path d="m256 512v-512c140.699219 0 256 115.300781 256 256s-115.300781 256-256 256" fill="#ff9100"/><path d="m256 61c-107.402344 0-195 87.597656-195 195 0 107.398438 87.597656 195 195 195s195-87.601562 195-195c0-107.402344-87.597656-195-195-195zm0 0" fill="#ffda2d"/><path d="m451 256c0 107.398438-87.597656 195-195 195v-390c107.402344 0 195 87.597656 195 195zm0 0" fill="#fdbf00"/><path d="m301 256c33 0 60-27 60-60s-27-60-60-60h-90v90h-30v30h30v30h-30v30h30v60h30v-60h75v-30h-75v-30zm-60-90h60c16.5 0 30 13.5 30 30s-13.5 30-30 30h-60zm0 0" fill="#ff9100"/><g fill="#ff641a"><path d="m361 196c0 33-27 60-60 60h-45v-30h45c16.5 0 30-13.5 30-30s-13.5-30-30-30h-45v-30h45c33 0 60 27 60 60zm0 0"/><path d="m256 286h60v30h-60zm0 0"/></g></svg>